PathFileType	4	(X/Y/Z)	Kaydara	
DataRate	CameraRate	NumFrames	NumMarkers	Units	OrigDataRate	OrigDataStartFrame	OrigNumFrames	
240.00	240.00	4	72	mm	240.00	45	359	
Frame#	Time	Hips			RightUpLeg			RightLeg			RightFoot			RightFoot_End			LeftUpLeg			LeftLeg			LeftFoot			LeftFoot_End			Spine			Spine1			Spine2			Spine3			Neck			Head			Head_End			RightShoulder			RightArm			RightForeArm			RightHand			RightHandThumb1			RightHandThumb2			RightHandThumb3			RightHandThumb3_End			RightInHandIndex			RightHandIndex1			RightHandIndex2			RightHandIndex3			RightHandIndex3_End			RightInHandMiddle			RightHandMiddle1			RightHandMiddle2			RightHandMiddle3			RightHandMiddle3_End			RightInHandRing			RightHandRing1			RightHandRing2			RightHandRing3			RightHandRing3_End			RightInHandPinky			RightHandPinky1			RightHandPinky2			RightHandPinky3			RightHandPinky3_End			LeftShoulder			LeftArm			LeftForeArm			LeftHand			LeftHandThumb1			LeftHandThumb2			LeftHandThumb3			LeftHandThumb3_End			LeftInHandIndex			LeftHandIndex1			LeftHandIndex2			LeftHandIndex3			LeftHandIndex3_End			LeftInHandMiddle			LeftHandMiddle1			LeftHandMiddle2			LeftHandMiddle3			LeftHandMiddle3_End			LeftInHandRing			LeftHandRing1			LeftHandRing2			LeftHandRing3			LeftHandRing3_End			LeftInHandPinky			LeftHandPinky1			LeftHandPinky2			LeftHandPinky3			LeftHandPinky3_End			
		X1	Y1	Z1	X2	Y2	Z2	X3	Y3	Z3	X4	Y4	Z4	X5	Y5	Z5	X6	Y6	Z6	X7	Y7	Z7	X8	Y8	Z8	X9	Y9	Z9	X10	Y10	Z10	X11	Y11	Z11	X12	Y12	Z12	X13	Y13	Z13	X14	Y14	Z14	X15	Y15	Z15	X16	Y16	Z16	X17	Y17	Z17	X18	Y18	Z18	X19	Y19	Z19	X20	Y20	Z20	X21	Y21	Z21	X22	Y22	Z22	X23	Y23	Z23	X24	Y24	Z24	X25	Y25	Z25	X26	Y26	Z26	X27	Y27	Z27	X28	Y28	Z28	X29	Y29	Z29	X30	Y30	Z30	X31	Y31	Z31	X32	Y32	Z32	X33	Y33	Z33	X34	Y34	Z34	X35	Y35	Z35	X36	Y36	Z36	X37	Y37	Z37	X38	Y38	Z38	X39	Y39	Z39	X40	Y40	Z40	X41	Y41	Z41	X42	Y42	Z42	X43	Y43	Z43	X44	Y44	Z44	X45	Y45	Z45	X46	Y46	Z46	X47	Y47	Z47	X48	Y48	Z48	X49	Y49	Z49	X50	Y50	Z50	X51	Y51	Z51	X52	Y52	Z52	X53	Y53	Z53	X54	Y54	Z54	X55	Y55	Z55	X56	Y56	Z56	X57	Y57	Z57	X58	Y58	Z58	X59	Y59	Z59	X60	Y60	Z60	X61	Y61	Z61	X62	Y62	Z62	X63	Y63	Z63	X64	Y64	Z64	X65	Y65	Z65	X66	Y66	Z66	X67	Y67	Z67	X68	Y68	Z68	X69	Y69	Z69	X70	Y70	Z70	X71	Y71	Z71	X72	Y72	Z72	

45	0.183	198.9409999999998	914.58397	126.699	249.73336000000018	892.11323	51.61072	154.82769000000008	495.93138	-45.976949999999995	143.87028999999984	104.72285000000001	-123.91577	-7.868500000000495	27.38083	-37.12772999999999	162.12782999999945	910.8622200000001	213.49446000000003	70.67774999999983	508.63395	286.01775999999995	-3.29482999999982	83.12289	369.74973	-124.41315000000031	0.010099999999999998	247.43364	133.9593700000005	1032.3982300000002	77.84587000000003	72.28387999999995	1088.75469	28.19366	4.375779999999395	1139.97919	-26.655620000000003	-65.82965000000058	1176.5711100000003	-83.01266	-141.79151000000002	1216.2129300000001	-141.64922000000004	-212.30169000000024	1253.0462600000003	-192.48259000000002	-348.1003499999997	1335.9936599999999	-203.3777	-100.10427999999956	1196.0924900000002	-148.15459	-66.57051000000047	1148.35209	-262.66417	-52.227859999999964	887.6946900000002	-220.2359	-116.95324999999957	639.73403	-259.31503999999995	-125.17403999999988	615.79169	-290.23598000000004	-152.25396	592.7785800000001	-299.89683	-170.85051999999996	575.3862000000001	-302.38139	-186.12963000000036	559.7183	-300.82266000000004	-123.11229999999978	607.67472	-279.08223	-139.6845000000003	558.04424	-288.26838	-161.2441600000002	528.97279	-288.14295000000004	-179.07904000000053	518.86355	-287.2308800000001	-196.82997999999952	515.86843	-285.91334999999987	-122.29977999999937	605.94656	-266.91169	-138.02145999999993	556.60215	-269.29039	-161.39890000000014	524.8191999999999	-267.50971	-182.84479999999985	512.59391	-265.6205099999999	-202.23291999999947	509.30267000000003	-263.79542	-121.20261000000028	605.9177800000001	-258.11906	-134.04670999999962	561.4529500000001	-252.73605000000003	-154.2471800000003	533.7678499999997	-249.49966000000012	-174.84033	521.9846599999998	-246.78289999999998	-193.02592000000004	518.89437	-244.64297000000005	-120.2475199999999	607.90788	-247.40167999999994	-131.10826999999972	568.0864999999999	-235.99529	-146.95516000000043	546.13834	-230.79913	-161.81679000000076	537.6505499999998	-227.55759	-177.83470000000034	534.9746	-224.93686000000002	-132.90671999999995	1210.4051900000002	-95.06180000000002	-167.5866500000002	1181.59523	24.04014	-90.26864000000023	950.5609600000001	-77.83568999999997	-40.2813900000001	724.8110800000001	-194.62513	-24.55913000000055	716.73777	-230.46579999999997	7.8363799999997354	705.09516	-243.55158999999998	30.20038999999997	694.0739400000001	-249.28605	48.67643000000044	682.3937900000001	-251.17641999999998	-25.312489999999343	704.7256299999999	-223.41718000000003	3.300999999999476	666.8098	-247.20511999999997	31.185139999999592	644.8471400000001	-254.28323	50.83608000000004	638.93604	-254.38854000000006	68.66294000000016	639.2663600000001	-251.57848	-26.463200000000143	698.33186	-212.94988	0.820850000000064	657.8902399999997	-230.49286000000006	31.013309999999365	633.2094699999999	-236.74635	54.608830000000125	625.7348	-236.16792	74.0599000000002	625.9294299999999	-232.75023999999996	-28.082870000000185	694.7107100000001	-205.02657	-5.2608399999999165	655.1143300000001	-214.10132	20.77298999999948	632.93607	-218.02074999999996	43.38296999999966	625.3722599999999	-216.64965999999998	61.6009099999992	625.3875799999998	-213.05084999999997	-30.175679999999375	692.19885	-194.58407999999997	-10.781230000000505	654.08058	-196.74194999999997	9.526749999999993	635.45457	-197.45156000000003	25.757849999999962	629.51836	-195.27654	41.74593999999979	629.2907	-191.41238000000004
46	0.188	198.9409999999998	914.58397	126.699	249.73289999999997	892.1612999999999	51.59604	154.88396999999986	495.96638	-45.993739999999995	143.8800199999996	104.76123	-123.94294000000001	-7.85494000000017	27.424000000000007	-37.14394999999999	162.13864999999987	910.81426	213.49698000000004	70.71017000000029	508.57008999999994	285.95928	-3.220900000000256	83.05303000000002	369.69748000000004	-124.33628000000044	-0.057869999999999866	247.37720000000002	133.91315000000031	1032.3954800000001	77.90076999999998	72.20087000000058	1088.72593	28.264760000000003	4.269470000000183	1139.9205900000002	-26.583519999999993	-65.92259999999987	1176.48345	-82.97605	-141.86969000000045	1216.0972399999998	-141.65068	-212.3693000000003	1252.90252	-192.51902	-348.18996999999945	1335.8103400000002	-203.44086999999996	-100.10545999999977	1196.12836	-148.12906	-66.07142999999996	1149.01645	-262.75129999999996	-50.06677000000036	888.25003	-221.60681999999997	-114.23506000000089	640.8261499999999	-264.7913000000001	-121.5291700000007	617.6510800000001	-296.51878999999997	-148.24979000000076	594.8036499999998	-307.48513999999994	-166.70478999999978	577.4200799999999	-310.90928	-181.95882999999958	561.66838	-310.1598699999999	-119.73584000000028	609.2599200000001	-285.5226799999999	-135.86123999999927	559.82572	-296.40565000000004	-157.30263000000014	530.69101	-297.59713000000005	-175.11589000000004	520.50433	-297.42202999999995	-192.8839399999997	517.41938	-296.6593299999999	-119.24354999999923	607.22559	-273.3823299999999	-134.70258999999987	557.9070900000002	-277.4323600000001	-157.99490999999944	526.01382	-277.08733999999987	-179.4358199999997	513.67528	-276.0866200000001	-198.85292000000027	510.2761299999999	-274.8683	-118.38269000000037	606.97688	-264.56689	-131.1926400000002	562.3483399999999	-260.65943999999996	-151.36427000000003	534.52484	-258.6703800000001	-171.97667	522.60997	-256.80850000000004	-190.20092999999997	519.4075900000001	-255.2380900000001	-117.72341000000051	608.69699	-253.7807200000001	-128.73059000000012	568.5636799999999	-243.68302	-144.62528999999995	546.4394800000001	-239.47298999999998	-159.53526000000056	537.8241	-236.84887000000003	-175.60715999999957	535.03069	-234.72911000000005	-133.07560999999987	1210.1529000000003	-95.06327000000002	-168.11188000000038	1180.6565600000001	23.76605	-89.38833999999952	951.10367	-80.35726	-39.19022000000041	726.4220400000002	-199.09992000000003	-22.837859999999637	718.7946100000001	-234.75584000000003	9.729129999999714	707.14507	-247.40243000000004	32.13042999999925	696.06926	-252.88045	50.56728000000021	684.30101	-254.59929999999991	-23.798869999999624	706.68164	-227.90788000000003	5.029889999999796	668.9496300000001	-251.72817999999998	32.90883000000031	646.91892	-258.61269000000004	52.52164999999968	640.88423	-258.43624	70.29344000000037	641.0574399999999	-255.28412000000003	-25.187840000000506	700.1367800000002	-217.56358999999998	2.1773300000004383	659.79279	-235.20473000000004	32.331779999999526	635.0169900000001	-241.26281999999998	55.86579999999958	627.3832499999999	-240.35207000000003	75.24906999999985	627.4011100000002	-236.56379999999996	-26.980280000000675	696.4059	-209.72888000000003	-4.232349999999315	656.8067300000001	-218.97590000000002	21.735169999999925	634.5242400000001	-222.74103999999997	44.26821000000018	626.7956299999998	-221.05792000000002	62.414050000000316	626.63934	-217.11469	-29.28693999999996	693.74884	-199.36769	-10.088600000000042	655.5442700000001	-201.74216	10.114810000000034	636.8013899999999	-202.35246	26.264900000000125	630.72881	-199.96155999999996	42.17479999999978	630.3398499999998	-195.79905000000002
47	0.192	198.9409999999998	914.58397	126.699	249.72933999999987	892.2156299999999	51.57744	154.9441200000001	496.00794	-46.02235999999999	143.88371000000006	104.80785	-123.98904	-7.8518999999996595	27.479649999999996	-37.18312999999999	162.15491999999995	910.76044	213.50151999999997	70.75324999999975	508.50197999999995	285.91832	-3.139600000000428	82.98523	369.6918099999999	-124.2545799999998	-0.12577999999999978	247.37119999999996	133.85663000000022	1032.39061	77.96439999999998	72.10295999999926	1088.69272	28.34772	4.144210000000385	1139.85488	-26.497	-66.03713000000062	1176.38581	-82.92358	-141.9722099999999	1215.96863	-141.63464	-212.4636899999996	1252.7432499999998	-192.5364	-348.3074399999996	1335.60969	-203.48536999999996	-100.13079999999991	1196.1532499999998	-148.08626	-65.5962499999996	1149.66731	-262.81432	-47.92780000000039	888.8104099999998	-222.94393999999994	-111.49071000000004	641.9883499999999	-270.26911999999993	-116.78813999999966	620.5741	-303.59012000000007	-142.6658499999994	598.2508599999998	-317.3114299999999	-160.76306000000022	581.0019500000001	-322.73973000000007	-175.91491000000042	565.16541	-323.7343399999999	-115.56083000000035	611.5947900000001	-292.98785999999996	-130.66363	562.76824	-307.48204000000004	-151.78025999999954	533.64943	-311.50281000000007	-169.49663000000055	523.38977	-312.91032000000007	-187.2553199999993	520.1885300000001	-313.3385799999999	-115.74593000000004	608.8933399999999	-280.9696800000001	-130.57384000000002	559.8067900000001	-288.60796	-153.6049699999994	527.84037	-291.3550599999999	-174.97369999999955	515.3703599999999	-292.26599	-194.40229999999974	511.82285000000013	-292.35191000000003	-115.38711000000058	608.16055	-272.14646000000005	-128.0595400000002	563.3277200000001	-271.44239999999996	-148.09978000000046	535.34756	-272.1477100000001	-168.6936799999994	523.25653	-272.1293800000001	-186.95296999999937	519.89128	-271.7850999999999	-115.35682999999972	609.28349	-261.26192999999995	-126.61647999999968	568.60406	-254.03639000000004	-142.5567600000004	546.21035	-251.96882999999997	-157.5261900000005	537.3968	-250.68211000000002	-173.67110000000048	534.41901	-249.64429999999993	-133.26715999999942	1209.88773	-95.04813	-168.67194000000018	1179.71318	23.501349999999995	-86.79669999999987	953.5087	-85.40947000000003	-36.464500000000044	729.9147999999999	-206.13207	-19.46075000000019	722.75648	-241.57994999999994	13.269760000000133	711.0816300000001	-253.77291999999994	35.69851000000017	699.9359699999999	-258.9907400000001	54.08432999999968	688.0648199999999	-260.54031999999995	-20.640879999999925	710.53988	-234.95394000000005	8.394250000000284	672.99733	-258.82287	36.25188999999955	650.8821200000001	-265.52019	55.81530000000021	644.7039900000001	-265.05689	73.52181999999993	644.69714	-261.55235000000005	-22.2799100000002	703.8361199999998	-224.74894000000003	5.151350000000093	663.59104	-242.51292	35.248680000000604	638.7011899999998	-248.38469000000003	58.70683999999983	630.8838900000001	-247.13646999999997	78.01079000000027	630.69964	-242.96678999999997	-24.2531199999994	699.99004	-217.01402000000007	-1.5995199999997567	660.3850500000001	-226.46541000000002	24.283470000000307	637.9806400000001	-230.08626999999998	46.724889999999505	630.06302	-228.08726000000004	64.78740000000016	629.71104	-223.78996	-26.783180000000357	697.1798099999999	-206.74581	-7.805170000000544	658.88187	-209.37384000000003	12.276780000000144	640.00626	-209.89596000000003	28.334020000000237	633.7788400000002	-207.28787999999997	44.1551300000001	633.2067400000001	-202.81934
48	0.196	198.9409999999998	914.58397	126.699	249.72817000000032	892.2727700000002	51.55965	155.01108999999997	496.05304	-46.05742000000001	143.89808999999968	104.85897	-124.04683	-7.83809999999994	27.53507	-37.23812000000001	162.16910000000007	910.7039	213.50502000000003	70.80475000000024	508.42893999999995	285.87729	-3.058390000000145	82.90967	369.66412999999994	-124.16961999999967	-0.19561000000000028	247.33591000000007	133.79866000000038	1032.38525	78.02893000000002	72.00468000000001	1088.6579299999999	28.429060000000003	4.020550000000185	1139.78643	-26.41561	-66.14685000000009	1176.2842699999999	-82.88090999999999	-142.0667199999998	1215.83479	-141.63339	-212.54744000000028	1252.57739	-192.57317	-348.41510000000017	1335.3975	-203.57573999999997	-100.14721999999983	1196.17523	-148.05474999999996	-65.10235000000011	1150.3220900000001	-262.8826699999999	-45.7457000000004	889.3941699999999	-224.28108000000003	-108.61612000000059	643.2483299999999	-275.86193999999995	-112.34709000000021	623.30853	-310.29166	-137.49568	601.5446100000001	-326.10741000000013	-155.25878000000012	584.5049499999999	-333.08035	-170.2806700000001	568.6886200000001	-335.43627999999995	-111.54651000000013	613.8742699999998	-300.0497899999999	-125.77718000000004	565.6945999999999	-317.3245	-146.56509000000005	536.7268300000001	-323.54665	-164.1560100000006	526.4935400000002	-326.18311	-181.86409000000003	523.26857	-327.53438000000006	-112.24752999999964	610.6457700000001	-288.18158999999997	-126.50376999999935	561.90517	-298.61296	-149.24744999999984	530.0315600000001	-303.77329999999995	-170.49900999999954	517.5588000000001	-306.17226	-189.88885000000028	513.9685300000001	-307.27072000000004	-112.27358999999979	609.5261	-279.39179	-124.76234999999997	564.67328	-281.21525	-144.62579000000005	536.69984	-284.03092000000004	-165.14583999999923	524.56677	-285.45161	-183.38724000000002	521.14264	-286.06111999999996	-112.72685999999976	610.1687400000001	-268.4777400000001	-124.10961999999927	569.1817600000002	-263.54780000000005	-140.02419999999984	546.67778	-263.1699899999999	-154.9958000000006	537.77762	-262.93282	-171.1571299999996	534.71547	-262.7398800000001	-133.45384000000013	1209.6157999999998	-95.04798	-169.23428000000058	1178.7642299999998	23.214109999999998	-84.89512999999988	955.3071000000001	-89.42428000000002	-34.587070000000494	732.8848300000001	-212.30203000000003	-16.944910000000164	726.2144799999999	-247.53244999999998	15.929729999999836	714.49709	-259.2890499999999	38.371900000000096	703.2679200000001	-264.26449	56.694509999999354	691.28105	-265.66463	-18.347090000000208	713.8934000000002	-241.14754000000002	10.86714000000029	676.5467099999998	-265.10505	38.683280000000195	654.3331	-271.64735999999994	58.18665999999939	647.99365	-270.91179	75.82037000000037	647.78574	-267.06324	-20.23675000000003	707.02509	-231.09646	7.233670000000529	666.88211	-249.03014	37.251860000000306	641.86224	-254.75252000000006	60.62132999999994	633.8394600000001	-253.18529	79.83772999999928	633.42993	-248.64380999999997	-22.39046000000053	703.0598300000001	-223.47063	0.14492999999947642	663.44895	-233.17649	25.924270000000433	640.90787	-236.68702	48.26173000000017	632.77967	-234.39085999999998	66.23318999999992	632.2099900000001	-229.74899000000002	-25.14282000000003	700.09025	-213.30495999999997	-6.406350000000202	661.69568	-216.23843000000002	13.538990000000013	642.6742599999999	-216.7021	29.494480000000294	636.27563	-213.89175000000003	45.220000000000255	635.50057	-209.12629000000004
